<svg width="1039" height="881" viewBox="0 0 1039 881" fill="none" xmlns="http://www.w3.org/2000/svg">
<g opacity="0.1">
<path d="M396.701 90.1272C230.808 110.735 0 308.571 0 506.407L597.628 196.257C597.628 196.257 578.725 67.5147 396.701 90.1272Z" fill="#E8FAFF"/>
<path d="M1038.72 831.431C1038.67 815.479 1027.29 801.761 1011.56 799.119C741.042 753.693 346.399 551.786 432.768 362.152C464.366 292.773 553.324 282.813 553.324 282.813V209.655H329.726L30.9122 421.915V741.337L593.508 935.051L1039 934.966L1038.72 831.431Z" fill="#B2EDFF"/>
<path d="M861.804 803.465C642.788 732.931 393.168 588.967 362.674 439.576C349.447 374.791 379.184 275.599 494.588 209.653H329.724L30.9122 421.915V696.38L331.049 597.934C360.929 636.931 399.849 673.712 447.746 707.013C450.611 709.01 453.897 709.96 457.14 709.96C462.357 709.96 467.491 707.496 470.695 702.892C475.888 695.406 474.044 685.133 466.566 679.932C396.033 630.902 346.425 573.94 318.817 513.593C315.071 505.402 318.656 495.69 326.581 491.412C334.724 487.015 344.603 490.623 348.637 498.953C426.643 659.968 692.936 783.731 851.692 834.863C853.374 835.394 855.073 835.652 856.747 835.652C863.717 835.652 870.191 831.208 872.435 824.221C875.232 815.558 870.467 806.268 861.804 803.465Z" fill="#00C3FF"/>
<path d="M30.9122 421.915V696.38L251.795 623.93C244.551 607.393 237.519 590.245 230.808 572.353C131.89 308.571 395.672 209.653 395.672 209.653H329.726L30.9122 421.915Z" fill="#00AAF0"/>
<path d="M101.666 392.377C101.666 392.377 234.851 160.319 482.983 160.319C537.179 160.319 593.541 185.092 613.085 199.348C700.67 263.232 603.988 365.505 557.787 296.204C504.893 216.865 409.2 199.076 316.674 236.441C209.513 279.718 149.75 385.506 149.75 385.506L101.666 392.377Z" fill="#D1F4FF"/>
<path d="M75.5629 609.447C-5.49534 546.248 28.7247 378.624 181.35 422.601C262.408 445.956 294.007 380.012 247.296 349.786C222.654 333.842 167.697 334.006 106.573 353.723C42.9846 374.233 0 433.73 0 500.54V720.729C0 784.465 51.6679 836.133 115.404 836.133L75.5629 609.447Z" fill="white"/>
<path d="M115.404 836.133L75.5629 609.447C8.30795 557.01 20.4979 432.798 113.748 417.098L113.001 416.763C73.1582 421.227 0 443.554 0 572.351C0 746.489 115.404 836.133 115.404 836.133Z" fill="#D1F4FF"/>
<path d="M276.147 639.671C276.147 639.671 474.131 913.078 1022.12 918.484C1031.21 918.573 1038.64 925.881 1038.64 934.966C1038.64 944.118 1031.22 951.537 1022.07 951.537H354.455C279.852 951.537 178.6 918.565 115.404 836.133C62.5308 767.168 82.4321 638.297 82.4321 638.297L276.147 639.671Z" fill="#00C3FF"/>
<path d="M1022.51 918.565C933.466 918.565 735.096 918.565 527.562 918.565C393.606 918.565 297.795 872.965 236.101 812.81C213.314 790.592 229.927 751.767 261.753 751.932L262.061 751.934C292.489 751.934 321.721 731.809 335.457 700.335C294.587 665.007 276.145 639.673 276.145 639.673L82.43 638.299C82.43 638.299 62.5287 767.17 115.402 836.135C178.6 918.567 279.85 951.539 354.453 951.539H1022.06C1031.22 951.539 1038.63 944.12 1038.63 934.968C1038.64 926.019 1031.41 918.868 1022.51 918.565Z" fill="#00AAF0"/>
<path d="M50.8339 653.409C27.2595 750.747 115.404 836.133 115.404 836.133C115.404 836.133 68.2595 754.133 104.07 694.969C127.769 655.814 176.198 647.571 230.808 704.243C272.429 747.433 329.527 686.29 303.118 640.036C327.009 644.438 351.523 635.858 354.455 613.568C365.217 531.775 93.4227 477.556 50.8339 653.409Z" fill="#E8FAFF"/>
<path d="M104.07 694.969C127.769 655.814 176.198 647.571 230.808 704.243C272.429 747.433 329.527 686.29 303.118 640.036C254.163 573.725 130.859 566.17 88.6133 638.297C44.7095 713.257 82.43 792.169 115.404 836.133C115.404 836.133 68.2595 754.133 104.07 694.969Z" fill="#D1F4FF"/>
<path d="M951.939 861.619C950.788 861.619 949.622 861.505 948.453 861.25C939.219 859.269 929.601 856.998 919.643 854.488C910.811 852.266 905.466 843.299 907.688 834.475C909.91 825.619 918.918 820.291 927.709 822.513C937.281 824.927 946.515 827.101 955.393 829.016C964.287 830.932 969.955 839.691 968.04 848.593C966.382 856.339 959.539 861.619 951.939 861.619Z" fill="#59D8FF"/>
<path d="M530.984 754.393C528.417 754.393 525.815 753.796 523.384 752.526C515.955 748.662 508.67 744.701 501.52 740.677C493.592 736.201 490.798 726.139 495.274 718.217C499.751 710.28 509.828 707.478 517.734 711.955C524.561 715.818 531.524 719.587 538.616 723.288C546.691 727.491 549.83 737.457 545.619 745.521C542.681 751.175 536.932 754.393 530.984 754.393Z" fill="#59D8FF"/>
</g>
</svg>
