<svg width="1100" height="516" viewBox="0 0 1100 516" fill="none" xmlns="http://www.w3.org/2000/svg">
<g opacity="0.29">
<path d="M561.292 167.105C545.867 167.105 530.442 164.534 522.73 179.959C502.162 215.95 453.317 228.805 417.325 208.237C404.47 200.525 396.758 192.812 389.045 179.958C378.763 161.962 350.483 161.962 340.2 179.958C319.633 215.95 270.788 228.803 234.795 208.237C221.941 200.525 214.228 192.812 206.516 179.958C198.803 161.962 173.095 164.533 162.811 179.958C142.244 215.95 93.3988 228.803 57.4067 208.237C36.8397 197.955 29.1272 169.675 8.5613 167.105C-9.43293 164.533 -30 172.245 -30 192.812V475.604C-30 491.029 -19.7171 501.312 -4.29207 501.312H561.291C576.716 501.312 586.999 491.029 586.999 475.604V192.812C587 177.387 576.717 167.105 561.292 167.105Z" fill="#CCF2FE"/>
<path d="M561.292 347.063H545.867C535.584 347.063 527.872 352.205 522.73 359.917C502.162 395.909 453.317 408.763 417.325 388.197C404.47 380.484 396.758 372.772 389.045 359.917C378.763 341.922 350.483 341.922 340.2 359.917C319.633 395.909 270.788 408.763 234.795 388.197C216.8 377.913 206.517 347.063 183.38 347.063C191.092 347.063 178.238 347.063 175.667 349.633C170.525 352.203 165.384 354.775 162.812 359.916C142.245 395.908 93.4 408.761 57.4079 388.195C36.8409 377.913 29.1284 349.633 5.99086 347.063C-12.0046 344.492 -30 352.205 -30 372.77V578.438C-30 593.863 -19.7171 604.145 -4.29207 604.145H561.291C576.716 604.145 586.999 593.863 586.999 578.438V372.77C587 357.345 576.717 347.063 561.292 347.063Z" fill="url(#paint0_linear)"/>
<path d="M278.5 115.687C292.698 115.687 304.208 104.178 304.208 89.9795C304.208 75.7814 292.698 64.2716 278.5 64.2716C264.302 64.2716 252.792 75.7814 252.792 89.9795C252.792 104.178 264.302 115.687 278.5 115.687Z" fill="#67D9FB"/>
<path d="M458.458 167.103C472.656 167.103 484.166 155.594 484.166 141.395C484.166 127.197 472.656 115.688 458.458 115.688C444.26 115.688 432.75 127.197 432.75 141.395C432.75 155.594 444.26 167.103 458.458 167.103Z" fill="#67D9FB"/>
<path d="M86.7079 153.416C100.906 153.416 112.416 141.906 112.416 127.708C112.416 113.51 100.906 102 86.7079 102C72.5098 102 61 113.51 61 127.708C61 141.906 72.5098 153.416 86.7079 153.416Z" fill="#67D9FB"/>
<path d="M539.708 170.105C555.133 170.105 570.558 167.534 578.27 182.959C598.838 218.95 647.683 231.805 683.675 211.237C696.53 203.525 704.242 195.812 711.955 182.958C722.237 164.962 750.517 164.962 760.8 182.958C781.367 218.95 830.212 231.803 866.205 211.237C879.059 203.525 886.772 195.812 894.484 182.958C902.197 164.962 927.905 167.533 938.189 182.958C958.756 218.95 1007.6 231.803 1043.59 211.237C1064.16 200.955 1071.87 172.675 1092.44 170.105C1110.43 167.533 1131 175.245 1131 195.812V478.604C1131 494.029 1120.72 504.312 1105.29 504.312H539.709C524.284 504.312 514.001 494.029 514.001 478.604V195.812C514 180.387 524.283 170.105 539.708 170.105Z" fill="#CCF2FE"/>
<path d="M539.708 350.063H555.133C565.416 350.063 573.128 355.205 578.27 362.917C598.838 398.909 647.683 411.763 683.675 391.197C696.53 383.484 704.242 375.772 711.955 362.917C722.237 344.922 750.517 344.922 760.8 362.917C781.367 398.909 830.212 411.763 866.205 391.197C884.2 380.913 894.483 350.063 917.62 350.063C909.908 350.063 922.762 350.063 925.333 352.633C930.475 355.203 935.616 357.775 938.188 362.916C958.755 398.908 1007.6 411.761 1043.59 391.195C1064.16 380.913 1071.87 352.633 1095.01 350.063C1113 347.492 1131 355.205 1131 375.77V581.438C1131 596.863 1120.72 607.145 1105.29 607.145H539.709C524.284 607.145 514.001 596.863 514.001 581.438V372.049C523 360.549 524.283 350.063 539.708 350.063Z" fill="url(#paint1_linear)"/>
<path d="M1028.67 117.833C1014.47 117.833 1002.96 106.323 1002.96 92.125C1002.96 77.9269 1014.47 66.4171 1028.67 66.4171C1042.86 66.4171 1054.37 77.9269 1054.37 92.125C1054.37 106.323 1042.86 117.833 1028.67 117.833Z" fill="#67D9FB"/>
<path d="M848.708 169.249C834.509 169.249 823 157.739 823 143.541C823 129.343 834.509 117.833 848.708 117.833C862.906 117.833 874.416 129.343 874.416 143.541C874.416 157.739 862.906 169.249 848.708 169.249Z" fill="#67D9FB"/>
<path d="M661.708 104.416C647.51 104.416 636 92.906 636 78.7079C636 64.5098 647.51 53 661.708 53C675.906 53 687.416 64.5098 687.416 78.7079C687.416 92.906 675.906 104.416 661.708 104.416Z" fill="#67D9FB"/>
</g>
<defs>
<linearGradient id="paint0_linear" x1="67.6041" y1="686.708" x2="452.312" y2="302" gradientUnits="userSpaceOnUse">
<stop stop-color="#34CDFA"/>
<stop offset="1" stop-color="#E8D9F1"/>
</linearGradient>
<linearGradient id="paint1_linear" x1="1033.4" y1="689.708" x2="611.42" y2="267.732" gradientUnits="userSpaceOnUse">
<stop stop-color="#34CDFA"/>
<stop offset="1" stop-color="#E8D9F1"/>
</linearGradient>
</defs>
</svg>
