<svg width="663" height="74" viewBox="0 0 663 74" fill="none" xmlns="http://www.w3.org/2000/svg">
<path d="M56.7 35.4C60.8333 36.9333 64.0333 39.1667 66.3 42.1C68.5667 45.0333 69.7 48.5667 69.7 52.7C69.7 58.8333 67.1667 63.6 62.1 67C57.0333 70.3333 49.7 72 40.1 72H0.7V2H38.1C47.4333 2 54.4667 3.66666 59.2 7C64 10.3333 66.4 14.7667 66.4 20.3C66.4 23.5667 65.5667 26.5 63.9 29.1C62.3 31.7 59.9 33.8 56.7 35.4ZM23.9 18.5V28.9H34.9C40.0333 28.9 42.6 27.1667 42.6 23.7C42.6 20.2333 40.0333 18.5 34.9 18.5H23.9ZM38.1 55.5C43.3 55.5 45.9 53.6667 45.9 50C45.9 46.3333 43.3 44.5 38.1 44.5H23.9V55.5H38.1ZM125.744 59.8H99.1438L94.4438 72H70.4437L101.044 2H124.244L154.844 72H130.444L125.744 59.8ZM119.244 42.8L112.444 25.2L105.644 42.8H119.244ZM170.295 20.3H149.795V2H214.395V20.3H193.895V72H170.295V20.3ZM236.701 20.3H216.201V2H280.801V20.3H260.301V72H236.701V20.3ZM286.93 2H310.53V53.7H342.13V72H286.93V2ZM406.849 54.2V72H348.649V2H405.549V19.8H371.849V28H401.449V45H371.849V54.2H406.849Z" fill="#424242"/>
<path d="M442.034 73.6C436.234 73.6 430.568 72.9667 425.034 71.7C419.568 70.3667 415.068 68.6 411.534 66.4L419.134 49.2C422.468 51.1333 426.201 52.7 430.334 53.9C434.468 55.0333 438.434 55.6 442.234 55.6C445.501 55.6 447.834 55.3 449.234 54.7C450.634 54.0333 451.334 53.0667 451.334 51.8C451.334 50.3333 450.401 49.2333 448.534 48.5C446.734 47.7667 443.734 46.9667 439.534 46.1C434.134 44.9667 429.634 43.7667 426.034 42.5C422.434 41.1667 419.301 39.0333 416.634 36.1C413.968 33.1 412.634 29.0667 412.634 24C412.634 19.6 413.868 15.6 416.334 12C418.801 8.4 422.468 5.56666 427.334 3.49999C432.268 1.43333 438.234 0.399998 445.234 0.399998C450.034 0.399998 454.734 0.93333 459.334 2C464.001 2.99999 468.101 4.49999 471.634 6.5L464.534 23.6C457.668 20.1333 451.168 18.4 445.034 18.4C438.968 18.4 435.934 19.8667 435.934 22.8C435.934 24.2 436.834 25.2667 438.634 26C440.434 26.6667 443.401 27.4 447.534 28.2C452.868 29.2 457.368 30.3667 461.034 31.7C464.701 32.9667 467.868 35.0667 470.534 38C473.268 40.9333 474.634 44.9333 474.634 50C474.634 54.4 473.401 58.4 470.934 62C468.468 65.5333 464.768 68.3667 459.834 70.5C454.968 72.5667 449.034 73.6 442.034 73.6ZM550.657 2V72H527.057V46.2H505.257V72H481.657V2H505.257V26.8H527.057V2H550.657ZM562.028 2H585.628V72H562.028V2ZM630.689 2C637.156 2 642.789 3.06666 647.589 5.2C652.389 7.33333 656.089 10.4 658.689 14.4C661.289 18.4 662.589 23.0667 662.589 28.4C662.589 33.7333 661.289 38.4 658.689 42.4C656.089 46.4 652.389 49.4667 647.589 51.6C642.789 53.7333 637.156 54.8 630.689 54.8H620.589V72H596.989V2H630.689ZM629.189 36.6C632.389 36.6 634.789 35.9 636.389 34.5C637.989 33.0333 638.789 31 638.789 28.4C638.789 25.8 637.989 23.8 636.389 22.4C634.789 20.9333 632.389 20.2 629.189 20.2H620.589V36.6H629.189Z" fill="#00C3FF"/>
</svg>
