<svg width="617" height="508" viewBox="0 0 617 508" fill="none" xmlns="http://www.w3.org/2000/svg">
<g opacity="0.29">
<path d="M591.292 167.105C575.867 167.105 560.442 164.534 552.73 179.959C532.162 215.95 483.317 228.805 447.325 208.237C434.47 200.525 426.758 192.812 419.045 179.958C408.763 161.962 380.483 161.962 370.2 179.958C349.633 215.95 300.788 228.803 264.795 208.237C251.941 200.525 244.228 192.812 236.516 179.958C228.803 161.962 203.095 164.533 192.811 179.958C172.244 215.95 123.399 228.803 87.4067 208.237C66.8397 197.955 59.1272 169.675 38.5613 167.105C20.5671 164.533 0 172.245 0 192.812V475.605C0 491.03 10.2829 501.312 25.7079 501.312H591.291C606.716 501.312 616.999 491.03 616.999 475.605V192.812C617 177.387 606.717 167.105 591.292 167.105Z" fill="#CCF2FE"/>
<path d="M591.292 347.063H575.867C565.584 347.063 557.872 352.205 552.73 359.917C532.162 395.909 483.317 408.763 447.325 388.197C434.47 380.484 426.758 372.772 419.045 359.917C408.763 341.922 380.483 341.922 370.2 359.917C349.633 395.909 300.788 408.763 264.795 388.197C246.8 377.913 236.517 347.063 213.38 347.063C221.092 347.063 208.238 347.063 205.667 349.633C200.525 352.203 195.384 354.775 192.812 359.916C172.245 395.908 123.4 408.761 87.4079 388.195C66.8409 377.913 59.1284 349.633 35.9909 347.063C17.9954 344.492 0 352.205 0 372.77V578.438C0 593.863 10.2829 604.145 25.7079 604.145H591.291C606.716 604.145 616.999 593.863 616.999 578.438V372.77C617 357.345 606.717 347.063 591.292 347.063Z" fill="url(#paint0_linear)"/>
<path d="M308.5 115.688C322.698 115.688 334.208 104.178 334.208 89.9796C334.208 75.7815 322.698 64.2716 308.5 64.2716C294.302 64.2716 282.792 75.7815 282.792 89.9796C282.792 104.178 294.302 115.688 308.5 115.688Z" fill="#67D9FB"/>
<path d="M488.458 167.103C502.656 167.103 514.166 155.594 514.166 141.395C514.166 127.197 502.656 115.688 488.458 115.688C474.26 115.688 462.75 127.197 462.75 141.395C462.75 155.594 474.26 167.103 488.458 167.103Z" fill="#67D9FB"/>
<path d="M462.75 64.2704C476.948 64.2704 488.458 52.7606 488.458 38.5625C488.458 24.3644 476.948 12.8546 462.75 12.8546C448.552 12.8546 437.042 24.3644 437.042 38.5625C437.042 52.7606 448.552 64.2704 462.75 64.2704Z" fill="#67D9FB"/>
</g>
<defs>
<linearGradient id="paint0_linear" x1="97.6041" y1="686.708" x2="519.58" y2="264.732" gradientUnits="userSpaceOnUse">
<stop stop-color="#34CDFA"/>
<stop offset="1" stop-color="#E8D9F1"/>
</linearGradient>
</defs>
</svg>
