<svg width="542" height="521" viewBox="0 0 542 521" fill="none" xmlns="http://www.w3.org/2000/svg">
<g opacity="0.29">
<path d="M553.292 167.105C537.867 167.105 522.442 164.534 514.73 179.959C494.162 215.95 445.317 228.805 409.325 208.237C396.47 200.525 388.758 192.812 381.045 179.958C370.763 161.962 342.483 161.962 332.2 179.958C311.633 215.95 262.788 228.803 226.795 208.237C213.941 200.525 206.228 192.812 198.516 179.958C190.803 161.962 165.095 164.533 154.811 179.958C134.244 215.95 85.3988 228.803 49.4067 208.237C28.8397 197.955 21.1272 169.675 0.561295 167.105C-17.4329 164.533 -38 172.245 -38 192.812V475.604C-38 491.029 -27.7171 501.312 -12.2921 501.312H553.291C568.716 501.312 578.999 491.029 578.999 475.604V192.812C579 177.387 568.717 167.105 553.292 167.105Z" fill="#CCF2FE"/>
<path d="M553.292 347.063H537.867C527.584 347.063 519.872 352.205 514.73 359.917C494.162 395.909 445.317 408.763 409.325 388.197C396.47 380.484 388.758 372.772 381.045 359.917C370.763 341.922 342.483 341.922 332.2 359.917C311.633 395.909 262.788 408.763 226.795 388.197C208.8 377.913 198.517 347.063 175.38 347.063C183.092 347.063 170.238 347.063 167.667 349.633C162.525 352.203 157.384 354.775 154.812 359.916C134.245 395.908 85.4 408.761 49.4079 388.195C28.8409 377.913 21.1284 349.633 -2.00914 347.063C-20.0046 344.492 -38 352.205 -38 372.77V578.438C-38 593.863 -27.7171 604.145 -12.2921 604.145H553.291C568.716 604.145 578.999 593.863 578.999 578.438V372.77C579 357.345 568.717 347.063 553.292 347.063Z" fill="url(#paint0_linear)"/>
<path d="M270.5 115.687C284.698 115.687 296.208 104.178 296.208 89.9795C296.208 75.7814 284.698 64.2716 270.5 64.2716C256.302 64.2716 244.792 75.7814 244.792 89.9795C244.792 104.178 256.302 115.687 270.5 115.687Z" fill="#67D9FB"/>
<path d="M450.458 167.103C464.656 167.103 476.166 155.594 476.166 141.395C476.166 127.197 464.656 115.688 450.458 115.688C436.26 115.688 424.75 127.197 424.75 141.395C424.75 155.594 436.26 167.103 450.458 167.103Z" fill="#67D9FB"/>
<path d="M72.7079 141.416C86.906 141.416 98.4159 129.906 98.4159 115.708C98.4159 101.51 86.906 90 72.7079 90C58.5098 90 47 101.51 47 115.708C47 129.906 58.5098 141.416 72.7079 141.416Z" fill="#67D9FB"/>
</g>
<defs>
<linearGradient id="paint0_linear" x1="-6" y1="475" x2="545.5" y2="475" gradientUnits="userSpaceOnUse">
<stop stop-color="#34CDFA"/>
<stop offset="0.520833" stop-color="#E8D9F1"/>
<stop offset="0.984375" stop-color="#34CDFA"/>
</linearGradient>
</defs>
</svg>
