<svg width="512" height="403" viewBox="0 0 512 403" fill="none" xmlns="http://www.w3.org/2000/svg">
<path d="M195.487 44.413C113.738 54.568 0 152.058 0 249.548L294.5 96.712C294.5 96.712 285.185 33.27 195.487 44.413Z" fill="#E8FAFF"/>
<path d="M511.86 409.714C511.838 401.853 506.228 395.093 498.476 393.791C365.172 371.406 170.699 271.91 213.26 178.462C228.831 144.273 272.668 139.365 272.668 139.365V103.314H162.483L15.233 207.912V365.317L292.47 460.776L512 460.734L511.86 409.714Z" fill="#B2EDFF"/>
<path d="M424.681 395.933C316.754 361.175 193.746 290.232 178.719 216.615C172.201 184.69 186.855 135.81 243.724 103.313H162.482L15.233 207.912V343.163L163.135 294.651C177.859 313.868 197.038 331.993 220.641 348.403C222.053 349.387 223.672 349.855 225.27 349.855C227.841 349.855 230.371 348.641 231.95 346.372C234.509 342.683 233.6 337.621 229.915 335.058C195.158 310.897 170.712 282.827 157.107 253.089C155.261 249.053 157.028 244.267 160.933 242.159C164.946 239.992 169.814 241.77 171.802 245.875C210.242 325.22 341.466 386.208 419.698 411.405C420.527 411.667 421.364 411.794 422.189 411.794C425.624 411.794 428.814 409.604 429.92 406.161C431.298 401.892 428.95 397.314 424.681 395.933Z" fill="#00C3FF"/>
<path d="M15.233 207.912V343.163L124.08 307.461C120.51 299.312 117.045 290.862 113.738 282.045C64.993 152.058 194.98 103.313 194.98 103.313H162.483L15.233 207.912Z" fill="#00AAF0"/>
<path d="M50.099 193.356C50.099 193.356 115.73 79.002 238.005 79.002C264.712 79.002 292.486 91.21 302.117 98.235C345.277 129.716 297.634 180.114 274.867 145.964C248.802 106.867 201.646 98.101 156.051 116.514C103.244 137.84 73.794 189.97 73.794 189.97L50.099 193.356Z" fill="#D1F4FF"/>
<path d="M37.236 300.324C-2.708 269.181 14.155 186.579 89.366 208.25C129.31 219.759 144.881 187.263 121.863 172.368C109.72 164.511 82.638 164.592 52.517 174.308C21.182 184.415 0 213.734 0 246.657V355.162C0 386.57 25.461 412.031 56.869 412.031L37.236 300.324Z" fill="white"/>
<path d="M56.869 412.031L37.236 300.324C4.094 274.484 10.101 213.275 56.053 205.538L55.685 205.373C36.051 207.573 0 218.575 0 282.044C0 367.856 56.869 412.031 56.869 412.031Z" fill="#D1F4FF"/>
<path d="M136.08 315.218C136.08 315.218 233.643 449.948 503.683 452.612C508.16 452.656 511.822 456.257 511.822 460.734C511.822 465.244 508.166 468.9 503.656 468.9H174.669C137.906 468.9 88.011 452.652 56.869 412.031C30.814 378.046 40.621 314.541 40.621 314.541L136.08 315.218Z" fill="#00C3FF"/>
<path d="M503.876 452.652C459.995 452.652 362.242 452.652 259.973 452.652C193.962 452.652 146.748 430.181 116.346 400.538C105.117 389.589 113.304 370.457 128.987 370.538L129.139 370.539C144.133 370.539 158.538 360.622 165.307 345.112C145.167 327.703 136.079 315.219 136.079 315.219L40.62 314.542C40.62 314.542 30.813 378.047 56.868 412.032C88.011 452.653 137.905 468.901 174.668 468.901H503.654C508.164 468.901 511.82 465.245 511.82 460.735C511.822 456.325 508.259 452.801 503.876 452.652Z" fill="#00AAF0"/>
<path d="M25.05 321.988C13.433 369.954 56.869 412.031 56.869 412.031C56.869 412.031 33.637 371.623 51.284 342.468C62.962 323.173 86.827 319.111 113.738 347.038C134.248 368.321 162.385 338.191 149.371 315.398C161.144 317.567 173.224 313.339 174.669 302.355C179.972 262.049 46.037 235.331 25.05 321.988Z" fill="#E8FAFF"/>
<path d="M51.284 342.468C62.962 323.173 86.827 319.111 113.738 347.038C134.248 368.321 162.385 338.191 149.371 315.398C125.247 282.721 64.485 278.998 43.667 314.541C22.032 351.48 40.62 390.366 56.869 412.031C56.869 412.031 33.637 371.623 51.284 342.468Z" fill="#D1F4FF"/>
<path d="M261.659 371.751C260.394 371.751 259.112 371.457 257.914 370.831C254.253 368.927 250.663 366.975 247.14 364.992C243.233 362.786 241.856 357.828 244.062 353.924C246.268 350.013 251.234 348.632 255.13 350.838C258.494 352.742 261.925 354.599 265.42 356.423C269.399 358.494 270.946 363.405 268.871 367.379C267.423 370.165 264.59 371.751 261.659 371.751Z" fill="#59D8FF"/>
</svg>
