<?xml version="1.0" standalone="no"?>
<!DOCTYPE svg PUBLIC "-//W3C//DTD SVG 20010904//EN"
 "http://www.w3.org/TR/2001/REC-SVG-20010904/DTD/svg10.dtd">
<svg version="1.0" xmlns="http://www.w3.org/2000/svg"
 width="260.000000pt" height="260.000000pt" viewBox="0 0 260.000000 260.000000"
 preserveAspectRatio="xMidYMid meet">
<metadata>
Created by potrace 1.11, written by Peter Selinger 2001-2013
</metadata>
<g transform="translate(0.000000,260.000000) scale(0.100000,-0.100000)"
fill="#000000" stroke="none">
<path d="M2157 1746 c-14 -13 -29 -21 -33 -17 -4 3 -4 1 0 -6 3 -6 2 -14 -4
-18 -6 -4 -8 -10 -5 -15 3 -5 -3 -13 -12 -19 -10 -6 -14 -11 -10 -11 4 0 -8
-29 -27 -64 -19 -35 -32 -66 -29 -70 4 -3 2 -6 -4 -6 -6 0 -21 -25 -34 -55
-12 -30 -27 -55 -32 -55 -5 0 -7 -7 -3 -15 3 -8 2 -15 -2 -15 -5 0 -16 -18
-25 -39 -23 -51 -47 -45 -78 17 -23 45 -44 69 -62 70 -5 0 -14 8 -20 16 -7 9
-23 18 -36 21 -14 2 -27 9 -30 13 -3 5 -23 15 -43 23 -21 7 -38 17 -38 22 0 4
-4 6 -9 3 -4 -3 -16 1 -27 8 -10 8 -24 12 -31 9 -7 -3 -13 -1 -13 5 0 5 -17
13 -37 17 -21 4 -44 11 -50 17 -7 6 -13 8 -13 4 0 -3 -12 -1 -27 5 -16 6 -47
13 -71 16 -36 4 -46 2 -62 -17 -11 -13 -20 -29 -20 -37 0 -7 -4 -13 -9 -13 -5
0 -24 -25 -42 -55 -18 -30 -37 -55 -41 -55 -4 0 -8 -6 -8 -12 -1 -7 -8 -22
-18 -34 -15 -17 -30 -21 -97 -22 -190 -3 -215 -5 -210 -12 6 -10 -15 -8 -32 3
-6 4 -15 3 -18 -3 -5 -8 -11 -8 -19 -1 -7 6 -16 8 -20 4 -3 -4 -14 -8 -24 -10
-26 -4 -204 -16 -224 -15 -10 0 -18 -5 -18 -11 0 -8 -3 -7 -9 2 -6 9 -11 10
-15 2 -5 -8 -13 -8 -27 -1 -13 8 -19 7 -19 0 0 -7 -6 -8 -19 0 -13 6 -22 7
-26 0 -3 -5 -24 -7 -46 -5 -22 2 -38 1 -35 -3 2 -4 -23 -8 -55 -8 -32 -1 -57
2 -54 6 3 5 -9 2 -26 -7 -22 -11 -28 -18 -20 -26 6 -6 11 -19 11 -29 0 -10 5
-18 11 -18 5 0 8 -4 5 -9 -3 -5 1 -14 9 -21 8 -7 15 -18 15 -24 0 -6 8 -23 17
-36 10 -14 18 -31 20 -38 1 -8 10 -20 20 -28 10 -7 15 -14 11 -14 -4 0 10 -24
32 -52 22 -29 40 -57 40 -61 0 -5 5 -5 10 -2 6 3 10 2 10 -3 0 -8 29 -48 47
-64 58 -52 93 -79 121 -95 51 -30 78 -41 92 -40 3 0 16 -6 29 -13 14 -7 36
-14 50 -15 39 -4 55 -9 63 -20 5 -6 8 -5 8 3 0 8 5 10 12 6 13 -8 33 -10 133
-15 33 -1 66 -7 74 -13 11 -8 13 -8 8 0 -8 14 80 14 102 0 9 -6 12 -5 8 1 -4
7 20 10 68 10 51 0 73 -3 69 -11 -3 -6 1 -3 9 6 13 16 15 16 32 0 10 -9 15
-12 12 -6 -5 8 31 12 126 13 267 4 302 6 309 16 5 6 8 4 8 -5 0 -13 1 -13 10
0 5 8 10 10 10 4 0 -12 29 -12 48 0 7 4 12 2 12 -4 0 -7 6 -8 19 0 14 7 22 7
26 0 4 -6 11 -7 18 -3 6 3 34 8 61 9 28 1 72 3 97 5 25 1 51 -1 59 -6 9 -6 11
-4 6 4 -6 9 1 11 25 8 19 -2 49 0 67 4 18 4 32 3 32 -3 0 -5 5 -6 12 -2 6 4
40 8 76 10 35 1 67 5 70 9 12 11 12 48 1 61 -9 11 -9 14 0 14 8 0 9 6 3 18 -4
9 -8 36 -8 59 1 24 -2 43 -6 43 -4 0 -5 9 -3 20 2 11 0 20 -6 20 -5 0 -9 11
-9 25 0 14 -5 25 -11 25 -5 0 -8 4 -5 8 8 14 -14 82 -26 82 -6 0 -8 3 -5 7 4
3 1 13 -6 21 -10 13 -9 14 1 8 11 -7 11 -4 0 15 -7 13 -20 30 -28 37 -11 10
-11 12 -1 6 9 -5 12 -3 7 4 -4 7 -16 12 -26 12 -22 0 -53 28 -45 41 6 9 15 40
20 74 2 11 4 21 5 23 2 1 3 5 5 10 1 4 5 19 9 33 9 32 14 59 15 82 1 10 5 15
11 12 5 -3 7 0 4 9 -3 8 0 31 6 51 7 20 13 46 15 58 2 12 6 33 9 47 13 58 15
72 9 85 -3 8 -9 12 -14 9 -5 -3 -9 -1 -9 5 0 12 -80 9 -99 -3 -10 -6 -12 -6
-7 2 11 19 1 14 -27 -12z"/>
</g>
</svg>
